<svg version="1.1" xmlns="http://www.w3.org/2000/svg" viewBox="0 0 1559.7188811166143 690.3270795003268" width="3119.4377622332286" height="1380.6541590006536">
  <!-- svg-source:excalidraw -->
  
  <defs>
    <style>
      @font-face {
        font-family: "Virgil";
        src: url("https://excalidraw.com/Virgil.woff2");
      }
      @font-face {
        font-family: "Cascadia";
        src: url("https://excalidraw.com/Cascadia.woff2");
      }
    </style>
  </defs>
  <rect x="0" y="0" width="1559.7188811166143" height="690.3270795003268" fill="#ffffff"></rect><g transform="translate(35.4403076171875 10) rotate(0 217.5 12)"><text x="0" y="20" font-family="Cascadia, Segoe UI Emoji" font-size="20px" fill="#000000" text-anchor="start" style="white-space: pre;" direction="ltr">Upcoming film releases for the ok BOX</text></g><g stroke-linecap="round" transform="translate(55.4078369140625 95.00640869140625) rotate(0 236.0123291015625 207.20611572265625)"><path d="M-0.52 0.16 C134.91 -1.3, 268.57 -1.2, 472.69 0.09 M-0.17 -0.13 C140.39 0.19, 280.46 0.17, 472.17 -0.19 M472.86 0.29 C470.33 162.73, 469.98 325.09, 472 413.58 M472.36 0.41 C470.26 134.72, 470.93 270.1, 471.89 414.66 M471.19 413.96 C283.95 415.41, 95.69 414.44, 0.84 414.02 M472.37 414.06 C292.52 413.79, 112.47 413.96, -0.13 414.51 M1.04 413.63 C-1.37 292.98, -1.03 172.61, 0.77 0.31 M0.05 414.66 C1.7 294.22, 1.63 173.95, 0.46 0.21" stroke="#000000" stroke-width="1" fill="none"></path></g><g transform="translate(87.76824951171875 67.593017578125) rotate(0 82.5 12)"><text x="0" y="20" font-family="Cascadia, Segoe UI Emoji" font-size="20px" fill="#000000" text-anchor="start" style="white-space: pre;" direction="ltr">Films List BOX</text></g><g stroke-linecap="round" transform="translate(97.43450927734375 139.1080322265625) rotate(0 192.9215087890625 160.8575439453125)"><path d="M0.77 0.06 C94.64 -1.39, 187.86 -1.3, 385.58 -0.19 M-0.35 0.01 C101.43 1.68, 203.33 1.4, 385.53 0.28 M384.72 0.65 C387.23 107.79, 387.49 215.39, 387.07 321.59 M386.38 -0.48 C386.85 84.16, 386.47 169.1, 385.78 321.48 M386.82 322.27 C304.3 321.62, 221.14 323.06, 1.08 322.7 M386.42 321.23 C245.28 322.56, 104.17 322.11, 0.2 321.7 M-0.7 320.7 C-1.17 201.23, -0.48 81.35, 0.84 -0.19 M0.23 321.17 C-0.08 250.77, -0.54 178.98, 0.19 0.05" stroke="#000000" stroke-width="1" fill="none"></path></g><g transform="translate(139.94720458984375 116.66586303710938) rotate(0 88.5 12)"><text x="0" y="20" font-family="Cascadia, Segoe UI Emoji" font-size="20px" fill="#000000" text-anchor="start" style="white-space: pre;" direction="ltr">Film list items</text></g><g stroke-linecap="round" transform="translate(10 46.69024658203125) rotate(0 283.2445068359375 306.67950439453125)"><path d="M-0.48 -0.7 C219.26 -1.88, 439.84 -1.75, 566.46 -0.18 M-0.06 0.24 C214.47 1.88, 429.05 2.38, 566.53 0.21 M566.71 0.28 C567.51 179.72, 567.43 360.47, 566.17 613.63 M566.59 -0.23 C564.55 219.08, 564.67 438.05, 566.7 613.49 M567.01 613.23 C437.41 614.8, 308.46 615.84, 0.47 613 M566.14 613.57 C418.19 614.39, 269.83 614.14, 0.38 613.15 M0.14 612.77 C-0.21 446.51, 0.53 281.05, 0.49 -0.1 M0.19 613.24 C-1.39 479.22, -1.41 345.2, -0.28 0.02" stroke="#000000" stroke-width="1" fill="none"></path></g><g stroke-linecap="round" transform="translate(64.32171630859375 551.6897583007812) rotate(0 231.80108642578125 41.01947021484375)"><path d="M-0.58 0.47 C170.21 -1.2, 341.83 -2.33, 462.79 0.53 M0.01 0.27 C126.74 2.49, 252.47 1.81, 463.45 -0.33 M463.45 -1.01 C463.4 25.4, 461.51 51.6, 462.82 83.49 M463.24 0.42 C462.96 23.6, 464.06 47.34, 463.48 82.63 M463.57 81.74 C357.46 84.69, 250.92 83.37, 0.75 82.51 M463.85 81.86 C327.76 81.59, 191.4 81.08, 0.15 82.24 M1.31 80.21 C2.46 60.67, 2.38 42.17, -1.43 -1.2 M-0.5 82.29 C0.93 66.13, 0.45 48.52, 0.36 0.58" stroke="#000000" stroke-width="1" fill="none"></path></g><g transform="translate(118.1190185546875 532.5540161132812) rotate(0 182 12)"><text x="0" y="20" font-family="Cascadia, Segoe UI Emoji" font-size="20px" fill="#000000" text-anchor="start" style="white-space: pre;" direction="ltr">View more upcoming releases &gt;&gt;&gt;</text></g><g stroke-linecap="round" transform="translate(857.9381193978643 23.977836336263863) rotate(0 216.8807373046875 87.7017822265625)"><path d="M0.02 -0.21 C93.22 0.65, 185.26 -0.07, 433.82 -0.1 M0.25 0.15 C158.08 -0.84, 316.32 -0.49, 433.58 0.39 M433.94 -1.34 C432.66 39.08, 434.41 81.66, 431.79 173.52 M434.12 -0.57 C432.25 60.03, 432.77 122.19, 433.08 175.99 M433.21 174.48 C263.22 173.57, 92.75 175.34, 0.77 176.3 M434.11 175.79 C276.38 176.26, 118.58 176.24, 0.47 174.93 M1.87 174.87 C-2.75 138.89, -3.09 101.25, -0.04 1.88 M-0.64 174.42 C2.51 122.58, 1.59 69.32, 0.38 -0.92" stroke="#000000" stroke-width="1" fill="none"></path></g><g transform="translate(961.3722014291143 40.56304141438886) rotate(0 47.5 12)"><text x="0" y="20" font-family="Cascadia, Segoe UI Emoji" font-size="20px" fill="#000000" text-anchor="start" style="white-space: pre;" direction="ltr">Film Box</text></g><g stroke-linecap="round" transform="translate(670.690988050208 285.046226228842) rotate(0 161.60452270507812 69.55870056152344)"><path d="M0.37 0.41 C71.01 2.65, 138.79 1.5, 323.51 -0.95 M-0.21 0.24 C109.96 0.05, 221.04 0.49, 323.62 -0.51 M322.65 0.66 C324.85 42.14, 325.49 81.73, 322.85 137.53 M322.89 -0.86 C322.82 42.75, 321.13 83.45, 322.53 139.88 M322.3 140.06 C238.53 140.73, 150.92 140.49, 0.71 139.85 M322.59 138.52 C229.13 139.98, 133.21 139.57, 0.61 139.03 M-0.87 138.12 C0.63 93.04, -0.42 48.47, -0.22 -1.78 M0.6 138.31 C0.41 102.84, 1.24 65.62, 0.68 0.85" stroke="#000000" stroke-width="1" fill="none"></path></g><g stroke-linecap="round" transform="translate(1245.6701750619268 283.3239667073576) rotate(0 152.02435302734375 66.14407348632812)"><path d="M0.99 1.23 C113.84 -0.86, 226.17 -2.25, 305.35 -0.6 M-0.71 -0.3 C102.45 -1.27, 203.61 -0.83, 304.61 0.15 M302.31 -0.66 C303.39 49.71, 302.92 99.77, 305.62 133.08 M304.64 -0.68 C305.23 34.06, 305.26 68.01, 304.14 131.43 M303.22 132.57 C205.32 134.92, 104.62 135.1, 1.17 133.26 M303.35 132.44 C203.96 132.08, 103.41 133, 0.16 132.22 M-1.04 132.81 C0.05 83.83, 1.67 37.29, 0.3 -1.69 M0.65 132.92 C0.82 84.33, 0.37 36.13, -0.79 -0.07" stroke="#000000" stroke-width="1" fill="none"></path></g><g stroke-linecap="round" transform="translate(669.690988050208 552.5822064534518) rotate(0 163.22964477539062 63.8724365234375)"><path d="M0.87 0.13 C104.88 -0.25, 210.87 0.68, 325.67 0.27 M0.34 0.55 C114.3 1.06, 227.96 1.01, 325.8 0.15 M327.11 0.43 C325.09 40.01, 324.81 78.76, 325.42 128.27 M327.16 0.15 C325.45 37.37, 325.47 73.75, 327.11 128.38 M326.67 126.65 C237.17 127.27, 149.26 125.12, -0.32 127.51 M326.23 127.38 C208.16 127.88, 90.5 127.83, -0.21 127.25 M-0.24 128.22 C0.21 94.59, 1.96 63.6, -1.55 -1.83 M-0.09 128.48 C-0.84 100.19, -0.99 72.78, 0.57 -0.95" stroke="#000000" stroke-width="1" fill="none"></path></g><g transform="translate(743.7441496713018 295.6867596761076) rotate(0 59 12)"><text x="0" y="20" font-family="Cascadia, Segoe UI Emoji" font-size="20px" fill="#000000" text-anchor="start" style="white-space: pre;" direction="ltr">Film list </text></g><g transform="translate(755.3260588509893 570.6718060628268) rotate(0 30 12)"><text x="0" y="20" font-family="Cascadia, Segoe UI Emoji" font-size="20px" fill="#000000" text-anchor="start" style="white-space: pre;" direction="ltr">Films</text></g><g transform="translate(1305.9373869759893 298.33461734212324) rotate(0 88.5 12)"><text x="0" y="20" font-family="Cascadia, Segoe UI Emoji" font-size="20px" fill="#000000" text-anchor="start" style="white-space: pre;" direction="ltr">More films here</text></g><g stroke-linecap="round"><g transform="translate(944.8567318102703 200.38140078938886) rotate(0 -39.765311000091515 41.99579324423709)"><path d="M-1.07 0.34 C-14.6 14.21, -67.26 69.34, -80.1 83.34 M0.57 -0.52 C-12.69 13.48, -64.74 70.73, -77.89 84.52" stroke="#000000" stroke-width="1" fill="none"></path></g><g transform="translate(944.8567318102703 200.38140078938886) rotate(0 -39.765311000091515 41.99579324423709)"><path d="M-65.66 55.27 C-71.89 69.26, -74.73 76.91, -78.35 86.23 M-66.08 56.73 C-67.94 63.2, -71.62 70.77, -78.06 85.23" stroke="#000000" stroke-width="1" fill="none"></path></g><g transform="translate(944.8567318102703 200.38140078938886) rotate(0 -39.765311000091515 41.99579324423709)"><path d="M-50.62 69.23 C-62.73 77.64, -71.43 79.85, -78.35 86.23 M-51.04 70.69 C-56.57 73.77, -63.83 78.02, -78.06 85.23" stroke="#000000" stroke-width="1" fill="none"></path></g></g><g stroke-linecap="round"><g transform="translate(831.070870862708 427.6610028401708) rotate(0 4.7400370940566745 62.34225275715346)"><path d="M-0.8 0.76 C1.11 21.5, 8.6 104.32, 10.28 124.57 M0.98 0.11 C2.83 20.54, 7.56 102.58, 9.35 123.07" stroke="#000000" stroke-width="1" fill="none"></path></g><g transform="translate(831.070870862708 427.6610028401708) rotate(0 4.7400370940566745 62.34225275715346)"><path d="M-1.61 95.72 C1.6 99.73, 0.26 106.94, 7.54 121.23 M-3.36 96.28 C0.47 101.65, 2.38 106.76, 10.17 123.51" stroke="#000000" stroke-width="1" fill="none"></path></g><g transform="translate(831.070870862708 427.6610028401708) rotate(0 4.7400370940566745 62.34225275715346)"><path d="M18.86 94.27 C17.92 98.44, 12.43 105.94, 7.54 121.23 M17.11 94.83 C16.62 100.66, 14.2 106.07, 10.17 123.51" stroke="#000000" stroke-width="1" fill="none"></path></g></g><g stroke-linecap="round"><g transform="translate(1271.2609343392705 200.50405093587324) rotate(0 48.205567864947966 41.65175375123974)"><path d="M-0.19 0.02 C16.17 14.24, 82.04 70.5, 98.16 84.32 M-1.75 -1.02 C14.51 12.96, 80.79 68.54, 97.58 82.71" stroke="#000000" stroke-width="1" fill="none"></path></g><g transform="translate(1271.2609343392705 200.50405093587324) rotate(0 48.205567864947966 41.65175375123974)"><path d="M69.43 73.56 C79.41 74, 85.55 80.09, 97.55 83.31 M69.82 71.94 C78.98 74.98, 87.69 78.41, 96.64 82.26" stroke="#000000" stroke-width="1" fill="none"></path></g><g transform="translate(1271.2609343392705 200.50405093587324) rotate(0 48.205567864947966 41.65175375123974)"><path d="M82.64 57.86 C88.52 63, 90.69 73.8, 97.55 83.31 M83.03 56.24 C87.82 64.41, 92.18 73.02, 96.64 82.26" stroke="#000000" stroke-width="1" fill="none"></path></g></g><g transform="translate(931.9654832717083 90.7163606866587) rotate(0 75 19.5)"><text x="0" y="15.5" font-family="Cascadia, Segoe UI Emoji" font-size="16px" fill="#000000" text-anchor="start" style="white-space: pre;" direction="ltr">State: Film Data</text><text x="0" y="35" font-family="Cascadia, Segoe UI Emoji" font-size="16px" fill="#000000" text-anchor="start" style="white-space: pre;" direction="ltr">Props: None</text></g><g transform="translate(732.7410818338574 332.091246699423) rotate(0 75.5 19.5)"><text x="0" y="15.5" font-family="Cascadia, Segoe UI Emoji" font-size="16px" fill="#000000" text-anchor="start" style="white-space: pre;" direction="ltr">State: None</text><text x="0" y="35" font-family="Cascadia, Segoe UI Emoji" font-size="16px" fill="#000000" text-anchor="start" style="white-space: pre;" direction="ltr">Props: Film Data</text></g><g transform="translate(743.209924312283 607.193741641399) rotate(0 85 19.5)"><text x="0" y="15.5" font-family="Cascadia, Segoe UI Emoji" font-size="16px" fill="#000000" text-anchor="start" style="white-space: pre;" direction="ltr">State: None</text><text x="0" y="35" font-family="Cascadia, Segoe UI Emoji" font-size="16px" fill="#000000" text-anchor="start" style="white-space: pre;" direction="ltr">Props: Film Object</text></g><g transform="translate(1315.340386017343 341.00170073445213) rotate(0 108.5 19.5)"><text x="0" y="15.5" font-family="Cascadia, Segoe UI Emoji" font-size="16px" fill="#000000" text-anchor="start" style="white-space: pre;" direction="ltr">State:None</text><text x="0" y="35" font-family="Cascadia, Segoe UI Emoji" font-size="16px" fill="#000000" text-anchor="start" style="white-space: pre;" direction="ltr">Props: New Release Data</text></g></svg>